<?xml version="1.0" encoding="UTF-8" standalone="no"?>
<!-- Created with Inkscape (http://www.inkscape.org/) -->

<svg
   xmlns:dc="http://purl.org/dc/elements/1.1/"
   xmlns:cc="http://creativecommons.org/ns#"
   xmlns:rdf="http://www.w3.org/1999/02/22-rdf-syntax-ns#"
   xmlns:svg="http://www.w3.org/2000/svg"
   xmlns="http://www.w3.org/2000/svg"
   xmlns:sodipodi="http://sodipodi.sourceforge.net/DTD/sodipodi-0.dtd"
   xmlns:inkscape="http://www.inkscape.org/namespaces/inkscape"
   width="294.88318mm"
   height="209.24399mm"
   viewBox="0 0 294.88318 209.24399"
   version="1.1"
   id="svg3950"
   inkscape:version="0.92.3 (2405546, 2018-03-11)"
   sodipodi:docname="beetle_car.svg">
  <defs
     id="defs3944" />
  <sodipodi:namedview
     id="base"
     pagecolor="#ffffff"
     bordercolor="#666666"
     borderopacity="1.0"
     inkscape:pageopacity="0.0"
     inkscape:pageshadow="2"
     inkscape:zoom="0.35"
     inkscape:cx="562.29011"
     inkscape:cy="392.28981"
     inkscape:document-units="mm"
     inkscape:current-layer="layer1"
     showgrid="false"
     inkscape:window-width="1853"
     inkscape:window-height="1025"
     inkscape:window-x="67"
     inkscape:window-y="27"
     inkscape:window-maximized="1" />
  <metadata
     id="metadata3947">
    <rdf:RDF>
      <cc:Work
         rdf:about="">
        <dc:format>image/svg+xml</dc:format>
        <dc:type
           rdf:resource="http://purl.org/dc/dcmitype/StillImage" />
        <dc:title />
      </cc:Work>
    </rdf:RDF>
  </metadata>
  <g
     inkscape:label="Layer 1"
     inkscape:groupmode="layer"
     id="layer1"
     transform="translate(42.939258,-43.382697)">
    <path
       style="fill:#020202;stroke-width:0.11466058"
       d="m -3.1312624,246.3825 c -7.8987896,-3.65589 -10.0999896,-17.84279 -13.5809396,-27.56012 2.70415,-16.41081 -6.7298,-16.49879 -14.19641,-20.21836 -6.46099,6.07889 -0.80542,-19.05215 -5.06042,-0.62493 -2.44849,-11.35495 -1.37644,1.61522 -4.43989,0.2894 2.60179,-9.99698 5.95053,-23.94799 -1.21921,-8.74294 -0.79248,25.39686 -4.70285,-12.4903 6.41664,-11.45516 0.38039,-16.66054 7.28474,-25.99363 12.30978,-38.18677 8.66335,-12.72852 8.38921,-33.88421 18.0475396,-44.80573 7.24758,-9.77826 8.12418,-34.84203 21.1710404,-30.65156 6.52922,-5.48231 14.02454,-6.95465 20.52418,-12.17786 10.01464,-1.32487 19.879826,-4.52583 29.903426,-5.61705 16.0793,-5.8274 32.53763,-2.40706 48.524856,-0.53554 -9.33765,5.43687 -22.172706,-3.81409 -33.131446,-0.30456 -8.43531,1.82754 -24.0985,3.54018 -27.417226,6.50579 10.305916,1.02938 20.995446,-7.39729 30.725386,0.30986 6.91643,-3.35355 14.06323,-3.72923 20.382996,2.33937 6.53677,2.85049 13.54246,6.11964 19.40114,14.06778 4.07329,-5.30025 12.21803,-15.08317 14.07728,2.21684 6.26239,6.02723 8.82587,16.97357 14.22854,24.43269 7.2324,2.29267 19.22768,1.05838 28.2238,3.17662 13.43585,-0.9202 26.40577,7.49705 39.79155,7.46074 8.85698,-2.00708 11.12065,9.12448 17.12172,17.74908 3.95641,5.90662 15.98358,2.24948 12.71398,15.82008 -0.68539,11.24193 -11.47476,14.67107 -14.68625,4.47506 -5.1893,-8.6164 9.71014,-12.47836 -0.27954,-18.79593 -8.22937,-10.54123 -17.72872,-20.31266 -29.70495,-19.60326 -12.33376,-4.88833 -24.91334,-4.45937 -37.54226,-6.56298 -11.38038,-7.82349 -19.50694,7.12011 -14.01786,22.53251 6.93863,9.59011 12.15937,21.47161 15.77015,34.4208 6.51077,16.26284 7.76949,-10.91412 17.04329,-9.88319 5.86317,-3.9831 12.34476,-5.17887 18.11261,-9.36586 5.36537,-0.54477 11.6911,-1.69403 16.90824,4.17994 7.78854,2.82085 17.73797,7.73908 20.20085,20.69523 5.90998,22.36551 2.68321,-7.26481 5.15906,-11.73974 -0.50965,18.01878 1.96486,36.79361 -1.10937,54.30041 -5.24413,-5.87934 -9.80537,-15.75864 -14.07326,-23.95692 -2.96647,-4.42039 -0.5268,23.90818 -0.0787,30.86002 0.58698,15.77986 -2.69773,38.90254 -15.4086,41.05141 -7.78235,-1.22439 -19.42953,3.68222 -24.49424,-6.38022 -11.82023,-3.66884 -4.54918,-25.21424 -8.06584,-37.52537 -1.99481,-16.27789 10.29674,-20.97812 16.09899,-31.0931 5.61967,-7.3872 8.22008,-9.39228 17.05001,-2.30233 4.63735,5.81074 15.13123,25.7212 12.11515,3.41186 0.69088,-13.76549 -12.48579,-12.31981 -17.85481,-19.44285 -9.21289,-0.93511 -18.07963,6.10821 -27.09534,8.84408 -8.95191,12.03002 -10.36632,32.87183 -21.76197,42.4221 -6.66153,-3.27663 -11.25321,6.81151 -7.44573,17.10275 9.08692,12.18508 11.0783,-2.46802 14.50998,-15.3935 -0.23002,-8.2913 4.76008,-22.84611 2.02532,-5.26106 -1.93411,9.77977 -5.3595,38.99781 -14.3446,23.9096 -8.93709,-0.84359 -2.7134,-19.32993 -3.34232,-24.03913 -11.3311,-7.51262 -23.21394,0.0471 -34.90485,-0.79537 -11.23943,-5.28252 -23.394646,1.02068 -34.599336,-4.85981 -7.99384,1.00052 -15.77752,9.63908 -23.74623,3.41212 -10.270386,-1.20515 -20.606256,-4.03328 -30.578796,0.16097 -1.17368,9.01157 -1.76298,23.02303 -7.53626,30.77144 -7.73231,9.02521 -17.2828404,12.86871 -26.8408304,10.96265 z m 5.65847,-1.86498 C 13.062998,244.2284 26.217828,235.85021 27.975858,218.1894 c 6.39805,-17.62551 -4.95801,-12.68908 -11.01868,-10.27236 6.7313,12.78922 -1.93216,33.55312 -12.9572104,28.49195 -4.61784996,-7.43875 -18.4280196,-6.00518 -16.0155296,-21.05338 4.5718696,-17.89013 -8.38529,-7.96307 -2.74527,3.93263 3.56311,10.67639 6.8415396,28.31335 17.2880396,25.22928 z m 198.3800824,5.26763 c -3.62002,0.3638 -12.55112,-27.64783 -8.44736,-10.96563 1.94176,4.98366 4.121,10.93445 8.44736,10.96563 z m 13.10442,0.25312 c 6.6777,-6.18572 9.54866,-19.60361 1.24288,-6.41618 -8.20524,2.28545 -18.44989,-7.22083 -21.30431,-18.51783 -0.155,-15.08456 2.7303,-34.77855 14.19071,-38.86189 7.37661,-0.5403 16.35324,5.69832 18.08867,16.86617 1.9463,4.76747 -1.20177,28.28008 3.1305,14.12449 5.43348,-15.51834 -1.6081,-30.02565 -11.56465,-33.76128 -7.17122,-10.72199 -15.8465,-8.46355 -22.05378,4.20501 -9.98137,4.37481 -7.96943,19.87429 -6.32611,31.25664 3.31951,12.53794 7.25134,30.18918 18.10408,30.45404 2.14635,0.44141 4.31417,0.72406 6.49201,0.65083 z m 4.58608,-0.12683 c 10.12365,-2.73912 13.05415,-21.69517 12.90125,-34.22039 -5.29425,10.93875 -8.82914,23.5157 -14.31401,34.23506 z m -26.77485,-8.12006 c -3.15679,-7.31027 -4.17665,-31.06741 -4.04295,-9.37992 -0.47634,4.34852 0.8391,10.361 4.04295,9.37992 z m 21.47303,0.21669 c 7.54365,-5.09837 13.86921,-16.96784 12.51552,-29.99071 -0.76015,-9.55767 -2.94764,-18.79062 -10.04064,-21.76331 -7.97301,-6.33876 -16.78124,4.16999 -18.57812,16.16595 0.62101,9.42552 8.67634,-25.15167 16.32827,-12.56194 11.31025,-1.01561 15.05779,23.45542 3.24895,28.86152 -4.22774,20.8286 -14.78122,-1.20628 -19.23707,-8.66981 -3.30047,0.17541 -2.85578,19.87127 4.32201,21.33605 3.72827,2.82303 6.70402,8.43267 11.44108,6.62225 z M 10.153048,231.70986 c 9.19438,0.54292 9.08124,-24.7226 1.79727,-24.9595 6.09908,17.89215 -16.0812304,10.65625 -8.1390704,23.44374 -2.38113,-6.96274 -12.58193,-12.96802 -5.97807,-22.31667 -15.0330496,-3.31329 1.09953,29.37631 10.7151,23.95916 z m -15.0445204,-5.11081 c -3.85938,-6.55721 -6.9339596,-21.67217 -5.4521796,-3.6913 1.5901996,1.79533 3.5446396,2.88431 5.4521796,3.6913 z m 10.62949,-6.19903 c 3.73866,-3.04066 -3.69925,0.46539 0,0 z m 206.9539324,8.88997 c 7.41476,-13.27539 -15.60799,-0.48538 0,0 z M 2.2985376,219.05586 c 10.0110604,-0.23211 7.42344,-18.00246 -1.38641996,-11.05172 -2.24149004,1.69316 -0.87525,11.5745 1.38641996,11.05172 z m -3.16354996,-0.67367 c -0.14318004,-12.2255 -4.24247004,-1.39602 0,0 z M 11.179908,212.9641 c -1.13391,-13.13301 -1.4156204,2.63609 0,0 z m 198.588672,9.28051 c 5.33843,5.16196 12.59875,-20.8856 10.87512,-8.37076 4.90266,1.19178 0.42393,-21.10564 -7.94549,-18.05942 -8.32928,-7.14332 -6.48385,17.70463 -8.01259,16.07526 -1.38154,3.34341 -0.2962,12.79883 5.08296,10.35492 z m 4.56228,-15.55538 c -5.97645,-11.89602 7.7184,-4.17194 0,0 z m -12.0557,10.45275 c -1.81944,-7.21066 0.75182,-20.36673 -3.28692,-4.59682 -0.85096,1.9532 3.54003,6.22876 3.28692,4.59682 z m 16.78739,0.71309 c -0.20267,-1.28264 -0.85818,1.40021 0,0 z M -2.2180724,205.41561 c 14.3940804,-0.39846 -17.8975296,-5.20228 -1.28833,0.14766 z m 17.9189904,0.17075 c 3.78077,-1.39934 24.07303,-4.21749 16.93519,-5.55129 -6.41915,0.0148 -26.1660804,1.42461 -25.2698404,4.30483 3.2339404,-1.12815 5.7203004,0.25938 8.3346504,1.24646 z m -25.72344,-2.15258 c -1.48476,-6.36829 -8.23355,1.87268 0,0 z m -7.45825,-2.63514 c 4.98339,-3.6825 -9.14647,0.59799 0,0 z m 22.2363296,1.25657 c 8.8174304,-8.58941 34.9921104,6.77563 26.8122404,-18.77277 -4.19589,-11.02026 -8.88142,-25.36624 -17.53268,-28.36454 -10.1771304,-0.14024 -21.6623704,-10.47918 -30.89437,0.79123 -5.55434,4.66288 -16.95092,28.42391 -10.0472,6.61573 5.58328,-7.41901 5.62217,-12.2429 -1.15888,-4.17773 -1.83598,9.20384 -10.24119,43.85941 1.43809,33.23318 9.30152,-0.64713 21.2467996,0.71679 28.5295196,6.68022 -2.23641996,5.88393 -10.72737,0.89246 -0.74311,3.99663 l 1.57422,0.17331 2.02207,-0.17529 z m 64.8381764,2.54489 c 9.27346,-4.23221 18.45251,-8.48051 27.92651,-2.52989 11.124846,-3.40271 21.786146,3.62063 32.705896,0.99657 7.80106,-1.18665 17.81589,-4.81096 3.8664,-5.08357 -16.00898,-0.87933 -32.08861,1.56074 -48.062436,-0.16521 -9.11267,-1.61893 -18.84537,0.0225 -27.93869,-0.40344 -4.398276,0.27561 -29.887266,-1.26541 -17.217586,1.93938 9.63623,2.55005 19.292856,1.27721 28.719906,5.24616 z m 93.570626,3.17187 c 4.16082,-17.53849 14.61699,-29.18321 18.13672,-47.3739 3.64954,-20.82513 -8.0455,17.22358 -12.00755,21.83436 -3.13075,6.24341 -16.66754,24.23681 -6.12916,25.53954 z m -177.580252,-8.52558 c 5.3817196,-3.11183 22.1440696,0.43227 8.4697596,-3.36205 -1.26492,0.33895 -14.1248596,-1.99572 -8.4697596,3.36205 z m -9.08469,-0.67169 c 8.12741,-3.0159 -10.20236,-1.02621 -10e-6,3e-5 z m 180.403752,6.38599 c 3.67083,-15.26364 13.14679,-24.91246 18.01564,-39.07592 -8.1975,-8.56964 -8.51655,-25.48775 -16.37926,-34.64065 -8.6499,-5.22857 -4.6416,-24.93197 -6.17171,-29.42582 -4.01478,10.24934 -5.10563,20.36611 -0.8544,29.89325 5.4523,19.65692 1.72707,41.58728 1.04068,62.14671 3.01104,10.56799 -13.53764,5.82554 -0.95492,9.11632 1.74798,0.6317 3.49351,1.94044 5.30397,1.98611 z m -173.179862,-8.10666 c -3.66265,-2.98435 -2.39985,1.93589 0,0 z m -12.47385,-1.42317 c 7.22232,0.30702 14.48586,-3.88469 2.80418,-1.9173 -0.0959,-0.46122 -5.62091,2.53103 -2.80418,1.9173 z m 197.031472,5.51537 c 6.10297,-4.87834 12.24017,-30.51023 3.20772,-12.56348 -0.91274,3.20126 -3.71402,10.64822 -3.20772,12.56348 z M 43.234598,195.36089 c 11.06424,-1.05569 21.367736,0.0886 32.318936,-0.15615 10.90384,-2.59859 2.34959,-32.07799 5.36583,-45.38356 2.8453,-12.99549 -0.0414,-27.07472 -10.36489,-22.93199 -12.82542,4.54938 -25.757976,2.79606 -38.831426,3.69067 3.16583,12.92391 -10.73821,10.34469 -2.2114,21.8916 3.71785,9.36537 7.58559,33.87605 5.11087,37.89679 -1.073,6.13281 6.14907,3.6661 8.61208,4.99264 z m 104.945342,3.24864 c 6.07504,-11.0418 4.68147,-38.32612 3.94586,-55.55156 0.35595,-18.13326 -10.34372,-15.94761 -19.4828,-13.78507 -14.31077,1.14522 -29.21589,-0.66286 -43.230336,0.0661 8.288,8.39158 -6.4092,7.87969 -5.17721,15.44489 -0.90228,-6.61392 5.45113,-23.02239 -1.3344,-12.72497 -0.36207,20.87339 -1.3849,41.89601 -0.79993,62.68919 16.08517,3.46678 32.477976,-0.15239 48.670626,1.05945 6.13469,-1.60041 11.54557,2.52003 17.40819,2.80189 z m 98.59824,2.27661 c 0.43353,-12.20373 0.79392,-18.04899 -2.5872,-31.72779 -2.55162,-12.4735 -8.52837,-18.26313 -15.65681,-23.98418 -6.60096,0.61685 -11.73291,-8.75245 -18.08867,-6.15839 -8.24872,5.47629 -18.37732,4.59846 -25.47075,13.88848 -1.889,8.34248 -8.47162,25.79359 0.67049,12.45747 6.05082,-0.36635 16.03308,-9.74688 14.12068,-8.67784 4.26093,3.35075 17.99157,-4.25397 23.7981,7.53128 8.38859,1.21098 9.31637,14.56859 14.54383,21.95131 2.65747,4.71487 6.23817,11.30959 8.67033,14.71966 z M -35.022212,187.24666 c 0.36526,-3.32 -1.40929,2.88637 0,0 z m 0.38466,-1.96145 c 2.76007,-6.92577 -0.041,-8.54681 0,0 z m 67.62939,-3.86085 c -0.4782,-12.54817 -2.3857,-27.16722 -8.74113,-35.15448 -0.47941,-11.53336 -3.12524,-27.49134 1.24734,-40.3497 0.97856,-16.10791 14.80427,-18.80023 15.99915,-35.46394 7.33049,-15.59579 22.448626,0.17035 30.638986,-12.63682 8.70408,3.07477 16.99099,0.78693 25.93475,0.76556 5.695686,6.27676 12.771876,9.84827 19.509826,13.41053 6.3188,7.76507 14.71675,12.75783 17.91327,25.31967 0.71711,6.78835 11.73699,18.07358 6.33397,7.94179 -8.71765,-7.66302 -9.11177,-25.8161 -17.42387,-34.21688 -6.54483,-10.66927 -16.08686,-9.99316 -23.97723,-16.93794 -7.726056,-4.52952 -15.816436,4.17373 -23.609916,-2.75522 -10.68909,3.15293 -21.585896,1.20824 -31.831936,5.72934 -7.603,-1.45989 -15.15309,1.40486 -22.48686,5.58159 -7.28111,6.03358 -18.1034204,2.21863 -19.8875004,19.13707 -2.02034996,14.54038 -13.5843796,18.37743 -14.5001796,33.58831 -0.29964,9.34635 -20.22147,40.4472 -5.31945,28.9579 3.18163,-10.69638 11.5293996,-19.51031 17.07895964,-19.99409 -7.19398004,-10.0194 -0.4308,-27.38018 2.85375996,-38.34861 C 10.863218,81.07 18.387648,74.28699 26.801548,73.12396 c 3.24177,13.47739 -4.64403,23.12261 -5.08718,37.7957 2.1854,16.66705 -24.8313404,12.89644 -6.58449,13.43835 13.74648,-3.64301 3.12856,14.77982 -4.28366,10.52674 6.63859,6.00164 12.59549,14.65042 17.8698,22.65636 2.49527,7.37247 1.53405,17.01028 4.27582,23.88325 z m -66.10338,-4.04869 c 0.50675,-3.08612 -1.27719,1.96573 0,0 z m 254.563592,5.70369 c -3.65909,-8.98225 -16.06285,-12.57774 -4.7695,-2.96443 1.66471,0.59041 3.00953,3.1584 4.7695,2.96443 z M 29.435558,171.31387 c 0.32842,-14.42323 -8.15614,-20.73402 -14.04631,-29.16484 -7.8532204,-14.26843 -16.8268104,-1.72538 -25.0932204,5.59776 10.772,4.32631 26.1440804,-0.90515 33.0901304,14.08114 1.98858,3.1479 3.74231,6.85382 6.0494,9.48594 z m -53.76381,-9.28022 c 7.50332,-9.50427 -1.27939,-1.55325 0,0 z m 4.65026,-6.24918 c 2.43404,-3.18475 -2.43161,1.71726 0,0 z m -8.35758,-1.9232 c 2.24684,-3.59176 -2.57932,2.28632 0,0 z m 4.43832,-1.96194 c 8.64516,-4.82663 17.1757796,-10.16558 24.47198964,-18.54743 5.60059996,-7.71327 12.75784036,5.10549 19.24692036,-3.92923 -4.87563,-3.81008 -27.6432604,-7.20286 -32.51344,9.485 -0.91153,7.13483 -11.53775,12.69522 -11.20547,12.99166 z m 10.41881,-3.58001 c 7.6844596,-6.89478 0.004,-3.05678 0,0 z m 41.99989,-8.2873 c 8.36384,-12.89383 -9.15521,-0.53034 0,0 z m 214.563472,7.89485 c 8.74733,0.84723 9.43035,-24.76422 -1.25104,-13.38909 -8.13336,0.70055 -4.83162,13.88817 1.25104,13.38909 z M 6.0119976,132.86966 c -0.36316,-0.91797 -0.22878,0.58601 0,0 z m -0.87956,-0.3813 c -0.44117,-1.3096 -0.47782,0.82311 0,0 z m 84.7740064,3.48062 c 2.30921,-10.27929 -6.99116,2.82772 0,0 z m -62.312626,-3.22784 c 2.23938,-3.2532 -2.50015,2.07859 0,0 z m -2.0817,-1.04618 c 0.008,-1.48475 -1.04091,0.7253 0,0 z m 0.77872,-3.11437 c 14.72287,-1.37874 29.25434,1.07849 43.726366,-3.82943 6.17621,-1.05941 13.83021,6.77435 10.5735,-9.2681 -2.44982,-17.26497 3.27343,-43.4377 -3.82866,-55.44417 -5.92465,-3.68061 -8.06673,10.96554 -12.67925,5.07746 -6.77678,-2.53382 -24.034446,1.48176 -21.934136,11.77285 9.21168,-7.78995 20.034596,-7.95242 30.143856,-7.03498 8.98508,4.323 6.21656,27.36333 6.82539,39.70757 -1.7712,15.53543 -18.71462,9.47845 -27.348756,12.5402 -8.00218,-3.49336 -16.7809,4.82071 -24.14052,0.92148 -5.94439,-9.55612 10.31479,-31.52754 4.73901,-30.14425 -6.3944,6.95747 -7.01679,21.47134 -7.89573,32.01773 0.48055,0.60322 -0.0972,5.86741 1.81893,3.68364 z M 4.0682576,123.37737 c 9.8364604,0.74566 3.57028,-16.88965 -1.59273,-16.91391 7.34467,-3.57727 10.0309004,-5.31834 0.14748,-4.67135 -1.87487996,-7.3809 15.5767604,-11.0581 20.9966004,-14.88122 6.67621,-17.3306 -4.70123,-10.53308 -9.94095,-4.68829 -11.8796104,-1.81589 -13.23829036,18.11004 -15.9606804,30.78703 -0.24254,4.43001 3.04837004,11.44498 6.35031,10.36774 z m 80.8079164,3.31928 c 20.931446,-0.16757 42.000536,2.70297 62.809736,-1.38207 -1.37089,-12.95089 -6.49179,-16.24673 -8.89572,-3.96695 -1.15347,-14.98362 -13.12595,-1.96275 -20.3932,-1.93769 -10.3689,0.75193 -20.331996,0.45146 -30.491496,1.24909 -7.27139,-11.59471 -2.20593,-32.50042 -3.9995,-48.56014 6.11331,-11.38857 18.060236,0.20094 26.335436,-0.58027 10.80437,2.13113 -10.737906,-3.80996 -11.953906,-10.54223 -15.2513,-5.45833 -20.738,9.01437 -16.64588,30.36404 1.80053,10.20564 -2.65583,31.91095 3.23453,35.35622 z m -54.076436,-4.61627 c 5.63392,-5.42283 22.81145,3.62121 20.57546,-8.09576 -5.93141,-6.69667 -9.27725,-28.32963 -17.80674,-15.13538 -3.20204,4.58135 -8.38025,21.69488 -2.76872,23.23114 z m -18.913,-0.90885 c 9.21592,1.86764 8.34751,-16.15956 10.90299,-24.99056 0.57858,8.4548 -18.0456004,7.39732 -14.0766204,12.73286 3.7083904,1.5627 0.42902,12.0325 3.1736304,12.2577 z m 230.612382,6.88779 c -2.78786,-2.37297 1.72359,2.57644 0,0 z M 58.942464,119.25305 c 10.24545,-0.70049 23.91785,-1.57179 18.87807,-23.15839 -1.0512,-7.2648 -1.03237,-31.67994 -8.13343,-21.39746 -9.32099,6.834 -11.70967,32.65451 2.49729,24.37094 13.95111,1.13235 -17.823326,10.32644 -11.71809,-7.47765 0.97893,-12.19554 15.43899,-24.87229 -0.0172,-19.22152 -4.699086,7.23325 -4.971386,20.44653 -8.411126,29.2165 -12.49375,-0.13059 9.791126,19.53892 4.28642,17.81217 l 2.618066,-0.14423 z m 30.8319,-0.64331 c 13.907506,4.46427 4.63468,-18.50273 -1.67677,-22.22466 -4.61827,-9.85701 0.82108,23.82117 1.67677,22.22466 z M 104.81982,118.096 c 9.98409,0.42887 19.84829,-3.08049 29.44293,-5.9441 3.74657,-14.68336 -9.54989,-16.09743 -16.13398,-15.26163 -10.59701,6.81978 -17.45754,-0.91403 -14.89003,-17.66464 2.43079,-19.12382 -2.11984,26.74137 7.9861,17.06462 6.45552,-6.05859 23.09367,5.90546 11.46814,-8.96656 -3.09087,-15.62393 -13.27598,-13.75395 -22.21453,-15.70361 -9.161296,-4.89291 -19.358176,-2.3031 -14.921066,15.905 1.34061,11.88846 15.057286,13.28376 10.11413,-4.67643 -2.40632,-28.65679 7.567656,16.4714 -1.91781,16.88279 6.24408,4.71839 1.78437,21.63382 11.066116,18.36456 z m -17.584606,-1.00191 c -0.28128,-10.28306 -2.93562,-7.97742 0,0 z m 52.285326,1.12387 c 0.87485,-8.60441 -5.38551,-17.7676 0,0 z m 8.48109,-5.87921 c 6.65649,-12.64925 1.77833,-20.2706 -3.36956,-30.20517 -7.28325,-5.92081 -9.91998,-29.89348 -15.65838,-8.26723 5.43259,9.63399 6.86581,24.10191 14.64497,30.52441 1.5832,0.5036 3.01228,13.28281 4.38297,7.94799 z m 82.71023,2.6741 c -0.5128,-0.21554 0.005,0.89737 0,0 z m -2.47061,-1.60164 c -1.89228,-5.1306 -5.69266,-3.34687 0,0 z M 11.537378,102.61702 c -0.10751,-1.75519 -1.4609,1.14179 0,0 z m 4.11419,-0.3704 c 12.18014,-11.10357 -3.95737,-2.62685 0,0 z m -2.34093,-2.623 c 7.60128,-5.48805 10.56708,-11.44088 0.3867,-6.14381 -5.6590304,3.58923 -14.53968036,7.88105 -0.3867,6.14381 z m 214.897522,9.52491 c -0.38011,-2.20548 -2.27602,-0.0721 0,0 z M 50.293638,100.70882 c 0.12716,-7.30826 13.868376,-32.96345 1.22387,-27.17548 -8.25434,1.88091 -15.54927,13.17139 -14.16164,19.69564 7.78777,-7.1087 5.53146,10.63512 12.93777,7.47984 z m 83.846882,-2.13355 c -1.87217,-11.16014 -18.72817,-27.22036 -8.43905,-9.54814 1.86438,4.85794 5.6047,6.38004 8.43905,9.54814 z m -5.35843,-27.61542 c 5.82019,-7.4871 -3.02692,-2.20561 0,0 z M 43.279378,55.30806 c 11.71119,-3.29093 3.40803,-3.33103 -2.68813,-0.90449 l 1.36105,1.08816 z"
       id="path3817"
       inkscape:connector-curvature="0" />
  </g>
</svg>
