<?xml version="1.0" encoding="UTF-8"?>
<!-- Created with Inkscape (http://www.inkscape.org/) -->
<svg width="210mm" height="297mm" version="1.1" viewBox="0 0 210 297" xmlns="http://www.w3.org/2000/svg" xmlns:cc="http://creativecommons.org/ns#" xmlns:dc="http://purl.org/dc/elements/1.1/" xmlns:rdf="http://www.w3.org/1999/02/22-rdf-syntax-ns#">
 <metadata>
  <rdf:RDF>
   <cc:Work rdf:about="">
    <dc:format>image/svg+xml</dc:format>
    <dc:type rdf:resource="http://purl.org/dc/dcmitype/StillImage"/>
    <dc:title/>
   </cc:Work>
  </rdf:RDF>
 </metadata>
 <path d="m66.627 298.44c1.391-4.7186 5.0821-8.5353 6.9843-13.296 3.7464-5.7369 7.1538-11.638 10.467-17.815 2.6907-4.0431 5.3577-8.539 7.3917-13.012-0.22998 2.9704-3.0864 6.4037-4.2942 9.5597-4.1949 4.7252-6.0773 11.563-10.1 16.778-3.3932 5.885-5.8796 12.549-10.114 17.538l-0.15404 0.42137zm46.31-16.015c0.33396-1.84 1.6276-3.6434 2.3782-4.7585-0.7581 1.3101-0.64568 6.463-2.3782 4.7585zm1.8271-3.613c0.19273-0.77406-0.53911 0.62468 0 0zm0.85706-2.962c0.41775-1.6901 1.16-0.31991 0 0zm0.47001-1.4129c0.40295-4.4666 2.5236-10.024 3.9274-14.79 2.4012-2.4482-3.4298 9.2695-1.5299 5.9352-1.0907 4.7905 2.3968-4.3195-0.7564 4.7668-0.74059 1.0429-0.61983 4.1056-1.6411 4.0883zm0.63288-1.4739c-0.18787-0.33954-0.18784 0.33955 0 0zm1.3261-4.216c0.0513-0.72775-0.64012 0.45131 0 0zm1.149-5.2727c-0.12868 0.0945 0.11934 0.52122 0 0zm1.5026-5.3855c-0.012-1.6936 0.94003-0.11859 0 0zm1.0373-3.0345c1.0755-3.4531 1.9533-2.6706 0.15841 0.20909l-0.12165 0.11831zm-29.94-1.3526c0.1745-0.49663 0.0636 0.49996 0 0zm0.36996-0.78645c0.08217-2.6744 1.1772-0.36187 0 0zm31.264-1.4733c0.25791-0.6324 0.38599 0.3927 0 0zm-30.551-0.0217c1.3499-6.1427 5.6173-10.966 7.5931-16.98-1.7707 5.7562-1.3785 4.239-2.959 7.8556-1.972 2.4175-3.2181 6.3655-4.6342 9.1244zm6.7108-14.146c-0.22839-0.34328-0.13953 0.4766 0 0zm24.146 13.478c0.74626-1.97 1.9814-4.7993 2.5651-5.3543 0.82375-2.6127 1.9008-4.8999 2.7904-7.4414 0.75971 3.045-3.9759 13.193-3.3999 9.7823-0.35323 0.80879-1.6521 3.2746-1.9556 3.0134zm5.2642-12.284c-0.17158-0.3251-0.21176 0.18037 0 0zm-5.4352 12.386c0.10613-0.25209 0.0327 0.4081 0 0zm3.0881-5.3951c0.10613-0.25208 0.0327 0.40811 0 0zm1.8382-6.1523c0.10612-0.25209 0.0328 0.4081 0 0zm1.0236-1.6541c0.21177-0.18036 0.17158 0.3251 0 0zm0.39316-1.1822c0.72409-2.0957 1.1064-4.4449 2.1556-5.7672-0.43235 2.1353-1.5349 4.7299-2.1556 5.7672zm1.1412-2.9145c0.25721-0.57166-0.59607 0.36763 0 0zm-29.989-0.57841c0.28369-1.7041 0.62637 0.57666 0 0zm0.98151-2.0092c0.29266-1.3386 0.0955 1.229 0 0zm30.122-0.45376c-0.62453-1.6037 1.483-0.86704 0 0zm-29.806-0.11539c0.58974-2.1621 1.0598-0.80326 0 0zm0.7331-1.4251c0.83073-3.1928 1.8298-2.3815 0.0321 0.24569zm29.292 0.12845c0.23109-1.8095 2.3567-3.66 0 0zm0.91537-2.5804c1.6686-4.4087 2.2388-2.1736 0 0zm-29.076-0.41125c0.18134-0.33716 0.0889 0.34607 0 0zm0.0735-0.4502c-3.5698-4.5093 0.92838-9.6486-6.2497-8.6909-2.3264-9.5183 1.0905 2.3801 4.8622-0.91775-2.7143-4.539 7.4564-11.178 2.3411-9.1789-2.6601 1.1023-4.8373 3.1757-7.024 5.3647 2.5939-5.2602 8.6766-5.3855 12.1-9.6355-3.0005-3.7342-7.4124-5.309-10.544-9.0512-4.6431-3.5762-9.826-6.5513-13.367-11.944-0.73858-1.0682-6.8452 1.3724-6.0278-2.9484 5.6828 5.3918 0.52811-6.7312-1.2128-5.0266-5.3462-1.0626 6.5699-5.4746 4.3504-3.7736 1.9635-0.55089 8.7389-5.854 6.3608-2.1365-2.6014 2.872-12.576 4.1043-3.231 3.9663 3.9601-4.505 7.6816 1.3618 12.348-1.5159 3.7353-1.5134 7.3841 0.61333 11.306-1.727 4.9322-1.4686 9.478-4.313 14.465-5.3162 4.6905-5.8291 1.0569 1.2369 2.8332 4.6046 1.4765 2.5064-0.59963 0.12253-2.005-1.1034-3.3803 0.17191 4.646 6.6267-1.7454 8.3692 1.085 3.0218 7.251-4.0912 10.759-1.0532 6.5265-0.39508 11.052 8.4642 17.557 6.873-1.8981-3.819 1.5214-5.3063 1.3303 0.22441-0.18014 6.0271-1.5721 14.892-1.5204 3.3893-3.6954-0.72711-6.3436-5.4987-10.849-7.3455-4.8915-1.9688-10.603-4.1604-14.999-0.43489-3.8451 0.4322-2.6923 4.6322-5.5695 7.7571-0.14044 2.5879-6.2544 10.579-3.1825 4.4583-3.4426-1.7057-5.1114-12.157-5.8732-7.5965 3.3376-4.4151-2.1715 4.131 4.1367 1.1544 1.5923-2.6955 7.0914-5.9084 1.6992-4.6321 2.7885-1.3506 8.3037-2.5443 8.2042-7.2873-2.4023-1.1154-4.8136-5.7107-8.5144-4.3431-3.9152 2.5082-8.5986 2.9361-12.488 4.9319-6.3997-1.6689-15.97 5.9528-14.403 3.526 2.2253 4.2931 5.6687 7.6649 8.7125 10.75 3.3621 3.1144 8.1867 3.3654 10.367 8.2715-2.9261-3.9096-7.9618-4.1902-11.309-7.8212-3.3503-3.177-5.6559-7.9699-9.3137-10.592-0.94914-4.5347-6.1392 3.9356-7.7489-0.0403 2.89 8.145 7.094 1.0994 4.942 0.70988-1.956 3.6927 2.8861 4.6402 4.4783 8.8362 3.9169 2.7819 7.5968 6.431 11.599 9.0019 3.2833 3.3081 7.0307 6.9585 11.261 7.3928 8.2847 1.522-2.4419 0.45214-3.1166 4.108 4.7861-0.86535 9.9376-3.4715 14.722-0.32417 2.8982 1.4427 5.0421 5.5284 7.8536 6.1187 4.248-4.632-6.4181-9.4609-6.089-7.6167 5.0652-2.9042 11.016-0.15596 16.489-0.30069-0.26625-5.4987-9.7117-1.606-13.438-5.1635-1.3716-2.0399-13.725 3.0077-9.3746-0.51316 3.6518-2.3056 7.8383-2.8623 11.525-4.7932 8.8828-0.35995 1.1434-5.7411-3.0725-2.1615-11.567-2.1921 16.853-3e-3 5.0468-2.2445 8.6778 4.6542-8.4475 7.9521-7.6343 7.4298-5.8666 3.7883 12.766-0.41514 6.8904 2.9214 3.6699 1.9907 7.3553 0.54876 11.058 1.7758 0.76141-1.8479 1.512-7.8467 1.2654-5.8683 0.51152-2.7344 3.4918-13.916 2.8664-5.3898-1.5499 3.9947-3.5651 8.5785-3.1835 12.82 2.6374 2.7475 7.3648 5.4046 6.3111 10.601 2.5514 4.3676-2.12 17.879-0.47849 5.1808-1.6798-3.312-3.9937-2.4988-4.2529-7.902-3.207-8.6641-6.3467-0.33757-8.2546 4.9973-2.1189 5.9448-2.2862 2.9846-0.14705-1.4866 1.1805-2.9699 2.0086-6.621 2.9917-9.3744-3.7361-1.9814-9.2477 0.82042-11.594 0.66114 4.5494-0.49684 8.012 7.6287 4.9263 11.193-1.1438-4.23-6.0464-5.3036-8.697-8.9624-5.1781-4.4346-11.569-1.5919-16.978 0.25899-3.3682 0.67656-7.4179 10.042-1.4654 7.5561 2.0572-0.85639 5.4142-7.1534 3.0294-1.3995-1.0383 1.6717-4.8175 10.505-3.8621 8.3956-2.1793-6.145-4.0277 4.1835-0.16069 0.25182 0.21256 0.57563-0.90809 4.1592-2.0118 3.7614zm32.572-7.7844c-0.0889-0.34606-0.18132 0.33718 0 0zm-28.868-0.40453c-0.17042-2.9874-2.2551 0.72119 0 0zm41.025-4.2333c4.3779-3.3246-6.2456-5.7763-5.07-9.1262 2.4202 2.1637 4.0029 7.6965 5.07 9.1262zm-4.0198-16.164c0.0255-0.45503-0.67669 0.10426 0 0zm0.34467-0.44699c-0.18608-0.55524-0.41811 0.53104 0 0zm-27.084-9.3231c1.7909-2.9149 3.7191-5.8421 4.8528-9.288-3.1306-0.14627-9.3646 5.8181-5.5879 9.2607l0.73526 0.0273zm33.094-4.07c0.45244-2.8999-2.3277 1.1311 0 0zm-45.998-13.062c-0.28267-0.33934-0.18845 0.35058 0 0zm0.28174-0.19075c-0.34828-0.55722-0.43277 0.33181 0 0zm16.415-3.3992c0.29301-2.3144-1.7374 0.50489 0 0zm2.2473-0.52098c4.7859-4.5818-4.8674-1.5905 0 0zm26.104 58.283c0.47372-0.42752 0.0791 0.53738 0 0zm-15.454-1.556c1.507-7.0803 1.5038-0.24078 0 0zm1.1029-2.8294c0.17108-0.98428 0.17108 0.98428 0 0zm-23.269-22.333c-4.1395-2.0206 5.1222-3.5111 0 0zm0.69627-0.19827c-0.32858-1.2311-1.8617 0.26764 0 0zm-2.31-1.2134c-0.17288-0.47032 0.26886 0.13608 0 0zm3.5811-1.1817c2.7718-3.1303 1.7447-0.28079 0 0zm2.4788-1.6322c3.8528-3.182 4.5555-1.2378 0 0zm3.8834-1.7436c3.4111-2.6461 5.8094-1.9776 0.60167-0.0543l-0.36762 0.17719zm38.727-5.7018c2.163-5.9483-3.3772-9.0879-2.3204-6.2048-3.1198-4.7826-4.6815-3.7034-9.4866-6.4619-1.5162 0.22384-11.043-2.5392-7.2039 0.29279 3.7545-0.13996 7.4088 2.8726 10.222 4.6012-2.7134 0.27745-12.606-3.5717-9.2566-3.9326-5.7212-0.74838-6.4724-4.9466 0.65337-2.7594 4.1838 1.0258 8.8885 1.5403 12.715 3.2966 1.2986 5.0376 7.202 6.9167 4.233 0.21986-1.8296-3.2514-3.4791-6.0684-7.266-5.3236-3.4312 0.13184-14.349-1.5242-10.891-1.7111-0.17002-1.1747 17.918 0.70806 14.334 1.4564 5.6147 5.498 0.72604 0.82246 5.8502 7.0186 0.64911 2.297 0.0288 8.1751-1.5833 9.5079zm-2.6493-14.93c-0.20341-0.37625-0.14954 0.18254 0 0zm-16.433-3.2282c-0.1895-0.4481-0.69299 0.52687 0 0zm-29.741 13.924c0.0889-0.34605 0.18133 0.33716 0 0zm-102.93-1.1562c-0.32872-5.7107 1.5102-11.745 4.2543-16.229-0.4784-4.3952 3.159-6.5078 3.4344-10.726 1.1032 1.0189-1.8673 5.9349 0.50018 3.9753 2.0078-0.96139 6.266-3.6966 2.2294-0.18931-1.6244 1.5637-4.9488 2.9975-4.1524 6.0404 2.7363 0.21726 4.4933-3.9159 7.15-5.0935 1.3375-1.5379 8.6822-5.3825 2.5315-4.9314-3.2356 3.0958-4.008-1.0223-7.5019-0.0602-2.1458-2.124-8.6239-1.499-7.0879 1.2369 2.2039-2.9625 6.9796-12.055 5.2967-9.6861 3.7068-6.2793 7.2978 3.1102 13.269 2.28 4.2379 1.423 6.5169-0.94819 1.25-0.86263-3.5614-3.5565 0.38233-10.899 1.1182-15.639-1.8094-1.1521 4.1071-7.2036 0.72925-4.954-3.6276 3.0788-5.9759 8.5865-10.692 9.5938-2.4547 2.2501-10.746 5.9006-7.9823 4.906-0.52167-2.0355 5.416-8.0842 4.3964-5.9085 5.136-2.5788 7.9548-9.3063 12.723-12.728 2.5794-3.4308 5.4977-5.7138 6.5534-9.5028 2.8595-3.6487-0.70924-6.6694 3.5683-7.6007 1.0348-1.7804 5.5155-4.1635 6.241-3.715-2.4585 2.0244-5.3661 3.9353-7.013 6.8858-0.60226 0.13207 3.4084 1.0513 0.688 4.1465-1.9227 8.1254 2.4304 2.3822 4.2099-0.40782 0.0067-2.105 4.8327-10.146 2.1579-4.6935-1.2747 6.0457 8.4681 0.0675 6.3268-0.13368 3.378-3.4467 4.3208 1.3428 7.2745-0.35248 1.92-2.5266 5.8122-10.362 6.8346-7.116-0.4742-4.3386 2.9841-7.6128 3.1684-11.51-4.3707 1.6838-10.06 0.21044-12.903 5.7815-2.7913 2.7816-5.3398 6.2693-7.6298 9.5051-5.2119 5.0972 4.6486-7.3318-0.57183-4.1593-4.8217 3.6463 5.5492-5.7652 4.3729-4.4884 2.8459-2.6886 4.9945-8.2563-0.20026-4.0801-2.4862 2.0362-5.0785 5.2228-7.2939 6.9173 0.41781-3.4457 10.068-10.862 7.5622-8.4706 2.7441-4.6959 6.6434-8.4183 10.656-10.53-1.9091 2.6832-5.0883 4.3856-5.7214 7.7442 2.5087-0.74452 2.3378-3.132 5.1401-3.5206 2.7786-2.5329-0.22475 2.4666 2.5907-0.32569 3.499-2.9791 7.089-5.4255 11.256-6.3791 4.6347 1.6822-2.1885 0.8171-0.52806 2.8403-3.9501 1.5273-6.5199 10.442-0.78789 10.16 3.4849-2.3065 4.5196-4.5434 8.3101-5.2313 2.0485-2.0088 4.4619-4.1806 1.9931 0.17736-1.5206-2.3383-7.5273 11.818-4.7274 7.2309-1.5553-4.2402-6.5959 5.0833-5.3871 2.595-1.2378 2.9098-0.08797 6.7156-4.2664 6.0626-4.1641 1.8718-8.3592 3.8645-11.578 7.9777-1.3882 2.2784-5.2963 0.35359-2.7148 2.9056-2.6597 10.77 3.4866 1.4868 6.6105 2.2868 2.4377-3.0653 8.0317-5.017 7.8245-10.287 2.234 5.0827 8.4244-9.4641 8.6622-3.2153-3.3706 6.8133 0.91521 5.7347 3.1026 2.0442 2.8992-3.6926-0.65768 14.425 4.1976 5.1074 2.9213-3.9033-0.5136-6.4412-1.2612-10.662-1.7406-5.2141 1.883-7.0865 1.5552-0.79556-3.0872 8.0866 7.348 3.3902 3.9552 3.2095-2.0259 2.0892 1.0375 5.5209-1.7494 6.9327-1.2298 2.9825 2.5255 7.8107 1.6176 8.2252 0.37685-2.938-0.84579-3.0041 1.8666-5.2548 0.8613 1.1665 1.753 11.104 1.247 8.7095 3.2244 2.3078 5.7055-3.4896 7.3632-6.3642 0.74042 4.3074-2.9761 7.0356-4.3409 11.005-3.6527 3.9455-3.0365 12.031-7.7319 12.716-3.2414-4.0295-4.9888 8.6454-1.4824 3.9384 2.1322-5.5888-1.0455 7.6912-2.6859 0.18584-1.3135-5.7824-1.7981-2.376-3.5798-2.9307 3.8767-2.7336 2.6586-9.8307 6.6055-12.637 2.9196-0.48788 7.118-11.29 2.4859-7.5232-2.9735-2.7629-9.1346 4.9808-7.3937 5.1911-1.2499 3.5037-5.876 4.7824-5.7351 8.5916 2.4671 2.1204 4.8236 12.236 1.4766 6.3226-4.9293-2.0962-9.0132 2.5148-13.827 2.7105-2.362 2.2417 3.5035 0.45203 1.7329-1.3543 1.9345 0.73129 1.0339-3.7036 3.0658-2.5805 4.9773 2.1881 12.124-0.51969 5.3185-6.0087-1.1557-6.7065-2.5335-2.4527-6.819-3.2029-1.9411-3.0323 0.63452-10.586-4.2196-4.0307-4.2204 0.71715-2.3851-10.213-6.4463-2.2148-7.2625 2.9102-1.0957-8.8835-4.491-11.679-3.0912 2.695-7.0701 3.2473-10.462 6.244-3.1758 3.0739-2.7772 8.9608-3.0078 13.204 0.93133 4.8761 5.4069 9.1661 9.1505 6.0346 1.2482-0.72478 4.5497-2.2083 6.4703-2.6967-3.1065 1.9871-6.088 3.1794-9.2666 4.7805-5.6331 0.15603-8.2368-8.2245-7.0642-14.464-2.9949-5.5944-0.90407 8.1925-2.3872 5.7045-0.05747 2.1222 1.4314 8.2857 1.8472 7.239-1.2866-3.1494-3.6381-7.9609-3.8767-0.88932 0.07076 4.0796 0.42531 10.337 4.9655 10.391 3.3691-2.2342 2.4836 0.48214 7.5207-0.74299 2.4233 2.0742 11.642-3.0083 4.733 0.51344-1.4662 2.2435-2.6704 2.6096 6.7634 1.1422-6.6864 1.8526-13.403-0.81785-19.949 0.48084-1.3509 1.2383-7.8614 5.0244-5.6661 3.7722 5.7698 2.6128 3.232-1.2816 2.7954-0.60823 7.456 2.1078 8.867-0.34151 10.182 1.8122 4.5933 0.71646 5.5212-4.0117 8.8509-1.3959 6.0265 0.76236 7.3341 0.44518 0.45955 0.62686-3.869 0.97459-3.6857 1.5796-6.4152 1.5497-7.6508 2.2478-15.338 0.0578-23.03-0.47154-10.201 3.5051 15.885 4.0584 10.972 3.6307 5.4406 1.914 11.18 0.84036 16.617 1.9133 5.914-0.65001 12.546-1.0287 17.724-4.4085-1.6612-3.7411 9.5731 0.70302 11.615-5.3806 0.5871-3.2189-3.094-8.4004-0.0071-7.2571-0.41351 2.7004 5.8421 5.5219 0.03066 8.4579-3.0026 3.2447-5.8603 4.6109-10.066 5.493-6.2674 3.5467-13.484 3.512-20.216 4.4275-6.1356 0.80224-12.278-1.4481-18.435-2.2292-2.3736 4e-3 -7.3833 5.0256-5.7689 4.1755 2.5104-1.4668 3.3708-5.9995 0.1927-2.9549-2.9343 1.3926-4.0698 5.0082-6.8747 6.5683 2.698-2.0573 3.3164-6.1842-0.70467-2.2418-3.3188 2.8204-7.4332 7.1166-7.3661 12.394-1.3026 3.6245-3.1762 0.31584-0.23323-2.6482 2.2025-2.6941 0.37995-6.4372-1.7317-2.6101-2.0237 2.412-2.1973 6.0291-3.4887 8.8971-1.8889 4.3324 2.9889 3.0817 0.48205 5.1111-0.36086 0.37458-0.84406 0.60764-1.3252 0.2635zm4.4788-27.812c4.4497-1.9945 8.8392-2.2714 13.091-4.7954-1.5451-2.2365-12.991-4.5822-8.0875-0.23734 4.6007 4.4077-4.0254-4.1921-4.5228 1.5976-0.30211 1.3336-3.784 4.279-0.48068 3.4351zm0.33454-2.8339c0.18786-0.33954 0.18786 0.33954 0 0zm57.277 2.5037c0.14617-0.63476-1.8837 0.75102 0 0zm-47.541-0.69595c-0.30852-0.99558-0.99654 0.30772 0 0zm52.149-1.3435c4.5246-1.7546-1.0786-1.1635-1.5139 0.0348l0.6622 0.19179 0.85169-0.22672zm-31.843-0.88924c0.03989-1.7983-2.8222 0.48756 0 0zm34.249-0.45776c-0.19276-0.27047-0.18893 0.72552 0 0zm-46.645-3.2582c8.6773 2.093 6.4079-6.1424 3.6396-11.726-0.65779 3.223-1.3825 8.9304-4.9797 9.1545-0.36362 1.2956 0.16876 2.7195 1.3402 2.5711zm20.005-2.8806c-1.2692-1.0746-1.9322 0.55219 0 0zm-20.263-1.4024c4.2073-4.1562 3.4343-12.135 5.1491-17.871-1.8373 0.82437-5.2857 10.154-3.8319 7.838-0.17971 3.0414-3.4467 8.2348-1.3172 10.033zm53.968-0.18845c-0.11624-1.23-0.50306 0.79397 0 0zm-66.273-5.3426c-0.17426-1.6552-0.95672 0.9138 0 0zm69.196-2.5274c5.3892-1.6269 8.1005-9.0892 10.906-14.699-2.5064-1.9978-6.986 1.1233-8.9877 5.2804-1.7426 1.0401-2.0982 4.5361-1.999 3.2794-1.2181 1.6204-2.3219 5.772 0.0806 6.1391zm-64.243-0.94954c2.5554-3.7776 5.9701-5.9342 8.8913-9.0466 2.2921-4.4385 2.3515-0.24285 4.4771-3.2495-0.55141-0.9943-2.2088-3.1548-1.0001-4.9892-2.6511 7.7398-9.8419 10.073-13.217 16.977l-0.14485 0.46675zm11.359-12.561c0.12131-0.44189 0.25519 0.16315 0 0zm0.18382-0.38978c0.18134-0.33716 0.08891 0.34605 0 0zm42.999 6.3095c4.3602-3.5946 7.7652-8.8268 11.492-13.337 0.51513-9.8708-2.3173-0.15309-6.129 0.53326 1.2254-0.66978-2.6876-9.0798-0.36742-9.4067-2.5658 4.2858-6.721 5.8685-9.6505 9.6977-3.9265 1.7295-4.3985 13.754 0.70374 8.8821 3.7553-4.766 4.1473-3.4429 5.0675-5.1391 1.6089-2.0112 5.5745-5.6742 2.3882-1.431-1.9007 2.8287-5.1086 6.6492-4.2343 10.486l0.73015-0.28449zm-13.127-7.0671c4.6969-3.92 9.9933-6.7566 13.787-12.432 1.495-5.8397-1.2985-5.3636-3.9547-1.9911-4.0022 2.6165-7.5609 6.323-10.608 10.549-0.15482 1.0287-1.122 4.398 0.77532 3.8742zm-7.9978-1.7163c-0.86137-2.4761-1.301 1.0704 0 0zm-20.587-2.8683c-0.17159-0.3251-0.21178 0.18038 0 0zm1.9863-0.6707c0.09565-2.2708-1.4832 0.98818 0 0zm24.124-0.31873c0.38524-0.7296-0.76787 0.51319 0 0zm-0.08213-0.35139c-0.19751-0.38389-0.84071 0.45116 0 0zm-23.993-0.3389c-0.14153 0.041 0.10533 0.41489 0 0zm-0.16052 0.0177c-0.26384-0.36034-0.0913 0.37317 0 0zm46.616-3.5231c-0.22497-0.31374-0.22287 0.50257 0 0zm-14.345-10.767c2.4477-1.7923 4.4695-4.7452 6.0851-7.7747-2.9564-3.6198-6.7739-0.77079-7.5615 3.5708-1.8033 1.215-0.74537 5.6554 1.4764 4.2039zm3.3528-1.0344c-0.52173-1.7981-1.205 1.0272 0 0zm-17.707-3.2922c2.3256-2.8701-1.9273-1.4402-0.20751 0.05746zm0.39123-0.78693c0.18785-0.33954 0.18785 0.33954 0 0zm9.4005-6.0098c4.5137 3.0298 8.7341-5.4788 2.7143-3.7678-1.264-0.20069-7.25 4.3522-2.7143 3.7678zm-8.2608-1.089c-0.28699-0.34577-0.28699 0.34577 0 0zm13.1-4.5172c3.6556-0.28149 3.1369-6.0282 0.22938-2.6762-1.5706 0.54634-4.0111 3.2858-0.22938 2.6762zm4.5093-2.8267c-1.1651-0.65821 0.34584 0.87983 0 0zm38.827 100.83c0.15851-0.42253 0.0801 0.23826 0 0zm0.8078-0.72169c1.3745-1.5089 3.2902-0.12575 0 0zm2.2852-0.54746c0.23857-0.7191 0.81822 0.1998 0 0zm-104.85-0.93447c0.27604-1.003 0.83239-0.10958 0 0zm-2.833-0.0955c0.10611-0.25209 0.03281 0.40807 0 0zm3.4285-0.57186c0.0217-0.90877 0.29664 0.19465 0 0zm64.114-0.29108c-2.0017-4.4892-5.8348-5.6794-9.4991-6.6795-6.4297-4.8438-15.152-3.0603-20.615-10.042 0.65682-5.0157 6.2857 10.909 8.0679 4.2366 1.8136-1.3816 3.2318-0.26164 6.9347 1.5831 1.1129 0.89643 7.1973 4.1818 5.1713 3.3356 3.1269 4.2651 5.2085 4.024 6.8745 1.3238 2.0816 3.6679 2.0597 7.5595 2.7572 4.6459 0.58691 0.17926 1.5152 1.473 0.30832 1.5966zm-63.504-0.45426c0.19932-0.43963 0.19932 0.43963 0 0zm0.58822-0.75721c0.89695-1.5642 0.70049 0.44444 0 0zm0.73526-0.8913c0.01529-0.58453 0.4639 0.26558 0 0zm0.34044-0.0845c-0.21389-1.0834 1.7881-0.66108 0 0zm1.7729-1.7453c0.22052-0.86416 0.14336 0.50329 0 0zm-1.4908-0.45912c0.2501-1.0876 0.39278 0.77527 0 0zm3.0595-1.2761c0.10611-0.25209 0.03281 0.40808 0 0zm87.344-0.0395c0.18785-0.33955 0.18785 0.33955 0 0zm-86.713-0.70988c1.536-1.5406-0.89335 1.4073 0 0zm0.61307-0.55855c1.5487-2.113 0.94844 0.42444 0 0zm112.55-0.42119c1.9274-4.9584 7.0639-4.3372 10.053-7.5164-1.7645-1.7248-10.691 3.33-8.2704 2.6751-3.6353 2.5409 2.9954-2.7397 1.2904-1.7037 4.5137-1.1599 9.3279-5.757 13.049-0.1704 2.288 2.1204-7.4203-2.071-9.8685 2.7733-6.1696 1.4317-0.89441 3.0566-0.93058 3.1316-1.7697 0.0894-3.5882 1.0381-5.3234 0.81048zm0.38607-4.3869c-0.11444-0.40236-0.19951 0.43943 0 0zm-114.63 3.9886c0.33904-0.85389 0.16442 0.64851 0 0zm138.95-0.32282c1.8881-6.0105 5.3923-10.892 7.8758-16.5-0.70128 2.9518-3.1879 8.1569-2.8582 7.1539-1.9235 2.7862-3.0041 7.3918-5.0176 9.3458zm-83.141-0.0244c-3.1206-3.267 6.5597-0.11284 0 0zm56.094-0.19137c0.66822-1.7297 1.2768 0.41338 0 0zm8.3154-0.1183c0.18787-0.33956 0.18785 0.33957 0 0zm-115.98-0.8457c1.0867-1.9825 1.251-0.22501 0 0zm84.075-0.28452c1.1398-0.76412 0.60267 0.17958 0 0zm24.891-0.0964c0.0693-0.54224 0.2379 0.1707 0 0zm0.0349-0.37428c0.58267-1.3738 0.9946-0.36714 0 0zm-23.819-0.13609c-0.4757-5.3317 5.7941-4.208 0 0zm-88.088-0.0613c0.18785-0.33955 0.18785 0.33954 0 0zm3.916-0.23523c-0.23085-0.51418 0.56615 0.25013 0 0zm54.813-0.11142c1.021-1.3509 4.1395-3.2478 5.6372-4.4628 0.12653 5.6221-2.2835 0.55936-5.6372 4.4628zm-58.612-0.26867c0.73589-0.7932-0.23544 0.81459 0 0zm0.36317-0.26436c-0.20049-0.60297 0.28528 0.13258 0 0zm3.8762-0.18522c0.56198-0.66482 0.7269-0.0486 0 0zm0.69744-0.50618c0.48347-1.2995 1.1643-0.84365 0 0zm38.628-0.51553c-2.4538-5.0882-7.6995-1.2007-9.7861-4.5199-0.75835-5.3436 14.323 1.8368 11.397 1.5826 0.83204 0.45897-2.1579 2.468-1.6105 2.9373zm-4.3923-3.8742c-4.9253-5.612-6.9948 0.39587 0 0zm-33.514 3.4128c0.37074-1.598 4.3663-5.4554 2.2771-2.1846-0.76404 0.78007-1.7525 2.1029-2.2771 2.1846zm-3.8303-0.44137c1.8157-3.062 1.6475-0.90751 0 0zm56.95-0.71995c-0.41919-4.1756 4.4566 1.387 0 0zm26.616 0.0304c-3.4377-2.7853 3.0571-0.23633 0 0zm23.97-1.5057c1.3832-1.6761 2.434-1.1948 0 0zm-36.6-1.0436c-7.5799-4.6996 5.3052 0.037 0 0zm14.248 0.17657c0.5878-1.9496 4.2344 0.67427 0 0zm-77.938-0.7089c0.21938-0.89105 0.2225 0.81113 0 0zm93.893-0.19623c0.17379-0.81977 0.17379 0.81977 0 0zm8.235 0.20384c1.5887-2.2499 6.6492-11.113 3.2719-4.1466-1.1375 1.4858-2.0634 2.9106-3.2719 4.1466zm-101.71-0.41684c-0.12363-1.0656 0.44232 0.94908 0 0zm0.3158-0.44402c0.13954-0.47659 0.22836 0.34326 0 0zm105.07-0.55936c2.2128-3.6906 4.8789-6.9088 7.1662-10.468 1.0847-0.41023-4.0874 7.1591-2.9017 5.5173-1.1552 2.0512-2.8797 4.2297-4.2645 4.9512zm-36.44 0.0164c-2.2242-1.705 1.8794-5.4968-0.3203-1.4481 5.2662 0.46354 4.7877-4.8496 2.6441-3.6558 3.9328-2.0453 0.72723 5.3414-2.3238 5.1038zm23.921-0.55113c-4.8502-1.8183 3.92-10.287 2.1615-3.0688-0.40614 0.99667-1.0347 3.3842-2.1615 3.0688zm-48.41-1.8796c-0.80385-1.7112 3.8799-1.3514 5.7424-2.2042-1.6386 1.3807-3.7783 2.3545-5.7424 2.2042zm-22.835-1.8744c0.4049-0.15363 0.07349 0.16566 0 0zm0.27791-0.42339c1.5677-3.5741 0.27684 1.2994 0 0zm66.45 0.12726c-3.19-3.5112 2.4704-4.0498 0.95695-0.83859 0.13212 0.80486-0.76515 0.44135-0.95695 0.83859zm10.787-0.86605c0.13951-0.47662 0.2284 0.34325 0 0zm36.959-0.87698c0.95821-3.9531 1.9897-1.2147 0 0zm-29.147-0.98214c0.2129-1.485 0.79877-2.4495 0 0zm-52.81-0.72275c0.16952-4.8124 7.3941 1.6809-3.4e-5 0zm26.497-0.20471c-0.36349-2.9435 2.7939-0.60243 1.8002-1.7194 3.0968-4.4634 0.62952 2.3379-1.8002 1.7194zm-41.165-0.31127c-12.037-4.2576 8.3834 1.4813 2.4057-0.13253l-0.27738 0.1278-2.1283 5e-3zm67.964-0.1224c0.0478-1.3136 0.73364-1.3366 0 0zm29.936-0.0885c1.2297-3.8072 3.0103-5.202 0.84998-1.2423-0.41816 0.1567-0.49439 1.4455-0.84998 1.2423zm-32.742-0.41195c0.33971-1.4682 1.029-0.19257 0 0zm-1.5578-0.13118c-3.3266-4.8514 1.6424-2.0432 0 0zm-36.308-0.0143c-0.70983-0.95705-3.4471-4.3089-1.3613-4.9809 0.13006 6.1909-2.7489 3.1575 0.26966-0.9641 1.1442-1.2532 2.2546 4.6996 1.0917 5.945zm38.58-1.0305c-5.4161-3.3312 2.2795-2.1475 0 0zm-71.563-0.025c-0.72691-0.25764 1.2084-0.13036 0 0zm1.0082-0.25972c0.32231-0.1356 0.03187 0.18223 0 0zm73.393-0.24656c0.38909-2.935 0.95796-1.6192 0 0zm-89.928-0.079c8.4379-1.9303 3.7516 3e-3 0 0zm-10.914-0.367c0.08893-0.34606 0.18134 0.33719 0 0zm16.249-0.18929c0.18844-0.35058 0.28267 0.33934 0 0zm4.4484 0c0.18783-0.33956 0.18786 0.33955 0 0zm53.674-0.18372c0.20669-0.30597 0.0567 0.46286 0 0zm-51.91-0.23887c0.45487-0.44326 0.36969 0.25182 0 0zm0.5882-0.13321c4.9264-1.5171 8.6611-0.30846 0 0zm52.02-0.3907c0.0488-0.83768 0.45574 0.2749 0 0zm31.653-0.12816c0.46107-1.7257 0.63699 0.25677 0 0zm-31.258-0.052c0.24897-1.3804 0.79393-0.22578 0 0zm0.85181-0.23286c-0.88331-1.94 2.2516 0.69192 0 0zm56.067-0.34887c0.37807-3.7755 0.24164 1.2164 0 0zm-102.8 0.0346c0.32231-0.13561 0.03187 0.18222 0 0zm0.52847-0.12467c0.287-0.34575 0.28698 0.34579 0 0zm71.592-0.0604c-0.17485-1.6835 1.8766-3.7655 0 0zm-70.062-0.3828c0.32231-0.13559 0.03187 0.18224 0 0zm0.34466-0.11271c0.58085-0.69892 2.8496 0.36126 0 0zm75.548-0.10659c0.28265-0.33932 0.18846 0.35057 0 0zm25.178-0.10566c0.0793-0.73791 0.56263 0.0895 0 0zm-97.969-0.25802c2.2193-1.1857 1.3828 0.074 0 0zm73.196-0.10957c0.40187-0.3465 0.27354 0.35544 0 0zm25.076-0.0881c-0.0826-0.36537 0.28507 0.0595 0 0zm-24.801-0.21357c0.0594-0.47686 0.32688 0.20896 0 0zm-71.735-0.0624c0.0013-0.43741 0.33522 0.19885 0 0zm22.504-0.0776c-0.09896-0.56648 0.44005 0.12738 0 0zm-22.107-0.12621c0.18134-0.33716 0.08891 0.34607 0 0zm-11.86-0.15489c0.25835-0.62687 0.6775 0.2631 0 0zm12.481-0.17216c0.73718-0.52656 1.2941 0.22401 0 0zm26.62 0.073c-0.41436-0.58449 0.61549-4.1694 1.2867-3.9313 2.3844 1.2547 0.86845 3.8221-1.2867 3.9313zm-36.225-0.36963c0.9114-0.40018-0.60225 0.57358 0 0zm10.895 0.0558c0.18787-0.33955 0.18784 0.33956 0 0zm0.84555 7.2e-4c-0.55901-0.57942 3.4611 0.0616 0 0zm62.902-0.23754c0.1745-0.49663 0.0636 0.49995 0 0zm-73.232-0.14199c0.18786-0.33955 0.18786 0.33957 0 0zm12.205 0.0584c0.48634-0.27872 0.48542 0.16016 0 0zm67.424-0.13833c0.61915-1.3301 0.23102 0.48185 0 0zm-77.937-0.18031c0.85115-1.056 0.41697 0.59279 0 0zm0.71073-0.0931c-0.10457-0.37154 0.50299-0.12908 0 0zm41.611-0.57158c1.9856-4.1119 4.1092-3.4359 0.60203 0.10807l-0.27783 0.11782zm-29.412-0.10125c-0.07088-0.44791 0.31404 0.18916 0 0zm90.283-0.29874c0.18135-0.33717 0.0889 0.34606 0 0zm-56.193-0.13427c-0.34067-1.1902 0.91703-1.8743 1.3956-4.2623-1.342 0.73023 0.52195 3.9702-1.3956 4.2623zm56.379-0.12601c0.31442-1.1081 0.33594 0.0823 0 0zm-113.91-0.24631c0.90482-0.81028 0.23747 0.26282 0 0zm114.23-0.44829c-0.136-0.48326 0.3255 6e-3 0 0zm-150.39-0.13932c0.08502-0.33303 0.19634 0.31017 0 0zm38.88 0.0502c-2.5383-0.59562 10.278-0.95913 1.0445-0.1574-0.31298 0.2358-0.698 0.25642-1.0445 0.1574zm-38.66-0.41167c0.26769-0.49036 0.31591 0.19077 0 0zm82.35-0.15356c0.18785-0.33957 0.18787 0.33955 0 0zm-2.7572-0.1893c0.18133-0.33717 0.08892 0.34604 0 0zm-35.844-0.0947c0.40185-0.34652 0.27357 0.35543 0 0zm-12.914-0.14198c0.44241-0.56826 0.19638 0.23846 0 0zm50.413 0.0717c0.37274-0.68709 1.4414 0.21959 0 0zm-49.718-0.18367c0.32229-0.13559 0.03187 0.18223 0 0zm49.548 3e-3c0.13389-0.6932 0.42964-0.0525 0 0zm-41.079-0.38583c-3.6764-1.3136-5.8087 1.4769-5.9189-2.7365 5.2622-1.8766 2.6473 2.8457 2.3528 1.0818 3.0667 0.95729 10.596 0.36816 3.566 1.6546zm47.164-0.15478c-2.3316-6.3099 2.5262-1.3401 0 0zm-86.261-0.0308c1.447-2.1883 3.1037-1.087 0 0zm101.47-0.51877c-3.4508-2.7571 3.8498-6.7656 4.3612-3.1998-3.7311-2.1503-3.5456 5.7421-3.5434 3.1653l-0.42278 0.0951-0.395-0.0605zm-58.452-0.52292c0.48466-0.14005 0.09402 0.15686 0 0zm-21.116-0.1624c-2.7023 1.0399-5.1749-6.9813-1.3965-0.78608 0.3468 0.21976 1.7739 0.20106 1.3965 0.78608zm-1.9398-0.977c-0.12192 0.12116 0.10882 0.62384 0 0zm3.0372 0.8264c0.5815-0.35126 0.5815 0.35124 0 0zm0.73526-0.0947c0.14792-0.31743 0.80829 0.2937 0 0zm0.44116 9e-3c1.7958-1.3147 0.45273 0.79036 0 0zm-22.158-0.15145c0.8866-0.81394 1.0435-0.19082 0 0zm23.337-0.0412c0.58898-0.61866 0.60524 0.40998 0 0zm2.9583-0.16635c0.48466-0.14008 0.09402 0.15688 0 0zm59.176-0.15169c0.0952-0.24173 0.24473 0.5777 0 0zm3.6406-0.428c-0.30357-2.2227 0.41973 0.96531 0 0zm20.836 0.27225c1.8154-6.7378 4.3921 1.0657 1.5599-1.3666-0.73535-0.47826-1.1738 1.7732-1.5599 1.3666zm-108.75-0.14696c0.87833-1.099 1.1309-0.33678 0 0zm90.773-0.44958c0.35641-0.87455-0.041 0.7755 0 0zm-89.816-0.18931c0.02574-0.70386 0.44154 0.2714 0 0zm0.30983-0.0888c0.43462-0.36536 0.06205 0.38822 0 0zm84.759-0.0767c0.18785-0.33954 0.18785 0.33955 0 0zm-51.211-0.0947c0.82493-0.8038 1.599 0.49494 0 0zm30.477 0c0.18784-0.33955 0.18787 0.33954 0 0zm83.39 5e-3c0.13579-0.39906 0.0976 0.30895 0 0zm-83.379-0.2839c0.30087-0.26272 0.04494 0.26541 0 0zm-63.74-0.12307c0.17778-0.593 0.44627 0.37008 0 0zm35.455-0.26657c0.24828-0.40382 0.23373 0.48506 0 0zm-34.903-0.15592c1.391-2.1785 2.5936-1.8324 0 0zm35.201-0.0271c0.08891-0.34606 0.18134 0.33716 0 0zm8.2222-0.37322c-3.9577-2.6948-10.724 1.2546-2.6525-1.7186-0.11452-1.6606 6.8588-1.4884 3.0881-4.5338-2.7794-0.0661-9.0108 1.3904-11.559 1.4694 4.6805-1.4734 10.41-2.4395 14.768-1.3554-0.30253 2.7688-5.048 3.4666-3.4477 6.0657l0.14705 0.15301zm38.67-1.1649c-0.72748-4.7526 1.4079 0.25342 0 0zm65.799-0.26029c0.89567-0.90817-0.30449 0.79793 0 0zm-145.37-1.0128c0.43948-0.80733 0.22234 0.0175 0 0zm79.464-1.0519c-0.47649-0.88918 0.83659-0.83962 0 0zm0.14061-0.60894c-0.12871 0.0945 0.11935 0.52122 0 0zm0.1807-1.0089c-0.65701-1.6108 1.3411-0.14017 0 0zm67.854-0.25135c0.59103-2.0561 0.55233 0.63932 0 0zm-66.797-1.4609c0.18135-0.33717 0.0889 0.34605 0 0zm29.521-4e-3c-2.881 0.27725-4.0082-8.8226-1.9852-6.432-0.89522 3.3214 5.8118 4.8459 1.9852 6.432zm38.528-1.4096c0.3876-0.28341 0.38549 0.32014 0 0zm0.11029-0.38449c0.287-0.34576 0.28697 0.34579 0 0zm-74.077-0.32967c-1.5594-1.1937 5.958-5.8677 0.63203-4.0806-2.616-1.7899-0.1891-2.4394 1.4332-5.642 2.6182-5.784-2.7397 5.6823 1.6098 4.9886 1.0803 3.9676-2.073 3.5796-3.675 4.734zm18.765-0.90116c-5.4248-0.68262 1.4304-6.3672 1.9746-1.6324-0.36105 0.94604-1.1651 1.861-1.9746 1.6324zm1.1291-2.0485c-1.735-1.8778-0.45365 2.4485 0 0zm0.80275 0.25048c-0.38551-0.34876-0.38548 0.34878 0 0zm-13.075 1.8299c-0.12515-2.2758 1.6179-0.17997 0 0zm2.2671-0.12621c-3.0095-0.31403 1.0917-1.3949 0 0zm64.868-0.21081c0.3404-1.1928 0.29484 0.19719 0 0zm-49.707-0.67004c4.1033-6.0223-0.45993-0.21402-0.31175-3.7376 1.1216-6.8098 5.1571 5.2043 0.31175 3.7376zm-25.559-0.31016c0.10613-0.25209 0.0327 0.40809 0 0zm25.398-1.0806c0.28268-0.33934 0.18845 0.35059 0 0zm13.971-1.5854c-1.7999-3.4829 0.70034-0.51715 0 0zm16.626-0.75189c-0.11697-0.50948 0.47456 0.0311 0 0zm0.17356-0.50222c0.18134-0.33717 0.0889 0.34606 0 0zm-56.689-1.1088c0.29353-2.3961 0.66897-0.2141 0 0zm78.82-0.44509c0.0349-0.45601 0.45402 0.23764 0 0zm-21.176-0.31865c0.4906-0.36891 0.41831 0.42288 0 0zm21.323-0.0568c0.98425-1.4178 0.17944-0.32068 0 0zm-20.857-0.11205c-0.14573-0.61082 0.34001 0.0194 0 0zm-18.847-0.60099c-0.48707-2.5316 0.76544 0.9951 0 0zm40.366-0.4338c0.17453-0.49664 0.0636 0.49995 0 0zm-79.403-0.29185c0.10613-0.25209 0.0328 0.40809 0 0zm0.17876-0.23028c0.22716-0.27878 0.0575 0.33787 0 0zm-0.17876-0.14832c0.10613-0.25209 0.0328 0.4081 0 0zm79.736-0.0336c0.29177-1.4816 0.41602 0.0121 0 0zm-40.674-0.10901c-0.90821-5.8904 0.40911-4.8562 0 0zm-38.921-0.0805c0.15337-1.2989 0.6503-0.61082 0 0zm12.904-0.17294c-2.8925-3.7378 3.353-13.855 0.91909-5.7617-3.3387 6.2131 3.1844 3.3861-0.91909 5.7617zm-21.139-0.63718c0.62276-1.2718 0.68047-0.0173 0 0zm8.5142-0.49452c0.25483-0.37734-5e-3 0.79838 0 0zm-7.8721-0.51131c0.27279-0.31682 0.05545 0.21545 0 0zm7.7835-0.15389c0.0834-3.6636 0.62815-2.0121 0 0zm14.222-0.11709c-0.0335-2.0156 1.0246-0.2698 0 0zm12.939 0.0267c-1.7976-3.17-2.9609-6.2392-4.8406-9.3414 0.12735-3.2721-4.6714-2.3053-1.0278-3.1114 1.3066-2.9862 2.5837 10.255 4.1767 2.4392-0.91438-8.0072 3.2177 5.3873 1.7584 2.6975-5.3176 0.56378 1.8358 6.6016 1.6245 5.4762-0.96924 0.0696-1.0703 1.7586-1.6911 1.8399zm-23.896-0.73226c0.13951-0.47661 0.22838 0.34325 0 0zm77.7-0.54225c1.2706-4.3316 1.4834-1.7518 0 0zm0.2148-0.19097c-0.14156 0.041 0.10534 0.4149 0 0zm-77.759 0.21619c0.1196 0.51317 0.31912-1.2083 0 0zm57.123-0.0564c0.0599-0.52872 0.25766-0.12867 0 0zm-45.809-0.23103c0.19969-1.6066 1.043-1.0682 0 0zm-11.029-0.3842c0.18134-0.33717 0.0889 0.34606 0 0zm-4.9649-0.57181c2.5604-4.0751 1.4353-10.348 1.0289-9.3529 2.2226-5.0875 0.0846 0.36547 2.234 1.8557-1.948 5.3449 1.927 6.0618 2.0512 5.2588-0.80153 2.8081-3.5699-0.73851-5.3142 2.2383zm2.2444-10.165c-0.1716-0.32511-0.21176 0.18036 0 0zm28.492 9.8854c0.0913-0.37315 0.26382 0.36035 0 0zm0.29753 7e-3c1.3844-4.041-6.5382-10.524-2.0569-8.598-1.5692-7.4072 3.0375 4.1425 2.1332 2.9366-1.4481 0.82474 2.9298 5.3905-0.0763 5.6615zm31.576-0.15207c0.80162-3.05 1.0131 0.18505 0 0zm-23.219-0.38736c-1.5076-2.786-3.4107-12.816-4.3255-9.2012 2.1903 8.2647 6.679 7.0565 2.395-1.5059 0.074-1.2036 3.0926 1.4799 2.0374-4.347-0.0804-7.2047 1.0123 10.928 0.0854 6.9133 0.54246 1.6846 1.23 7.4012-0.19228 8.1408zm0.3523-14.99c-0.18784-0.33957-0.18787 0.33955 0 0zm-23.177 14.976c-0.32303-3.0481 1.0809 0.14952 0 0zm67.046-1.1101c0.0636-0.49994 0.17452 0.49663 0 0zm-20.035-0.14197c0.0643-0.42664 0.0643 0.42663 0 0zm20.249-0.0853c-0.16362-0.38088 0.58716-0.3615 0 0zm-19.922-0.53769c0.20801-0.88885 1.0286-0.64877 0 0zm20.028-0.18077c0.23674-1.2287 0.48258 0.15072 0 0zm-67.069-0.47406c0.10212-1.093 0.0861 1.0153 0 0zm-69.322-0.18253c-0.89165-3.0566 0.65388 7e-3 0 0zm63.747-0.0919c-0.61485-2.3082 1.9982-8.5324-2.7576-8.9085-2.6928-4.0876 1.9222 1.47 1.319-5.0519-0.91666-0.33177 2.1952 4.1545 2.5745 6.4057-0.6553-3.8716 0.44167-22.009 1.3946-9.9104-0.95777 5.1863 3.4551 7.0466-0.53117 12.257-1.2136 1.2768 0.0933 5.6184-1.9993 5.2079zm53.28-0.16003c0.30293-1.6602 0.34915 0.28663 0 0zm-58.852-0.35546c-0.25459-2.7574 3.1704-6.5389 1.2713-2.3035-0.16006 0.60802-1.1635 3.2462-1.2713 2.3035zm11.087 0.22396c0.0931-1.0092 0.4802-0.28405 0 0zm67.601-0.0765c0.0621-1.4728 0.98957-0.72813 0 0zm-90.915-0.10615c-1.1381-2.3785-5.6654-2.4683-3.7949-3.6445 5.4384-6.8078 2.3545 2.7651 4.5214 3.0565-0.43303 0.15837 0.44088 0.54612-0.72648 0.58798zm4.6744-0.20488c-2.571-4.3392 0.08 2.8962 0.40925 0.0508l-0.40923-0.0508zm66.824-0.3095c-0.12016-0.80266 0.67507 0.1113 0 0zm-26.781-0.3284c-0.98952-3.3276 0.77322 0.9134 0 0zm-102.87-0.21494c0.10611-0.25208 0.03281 0.40809 0 0zm129.99-0.0158c0.65414-1.5074 1.1359-0.58439 0 0zm-70.384-0.43388c0.54041-0.26167 0.05794 0.31232 0 0zm90.083-5e-3c0.13846-1.8153 3.4266-6.2223 1.3218-2.5652-0.45814 0.8582-0.3335 2.2846-1.3218 2.5652zm-149.33-0.21066c1.1848-2.3399 6.9665-9.1883 3.0384-3.6613-1.2013 1.1159-1.7737 2.739-3.0384 3.6613zm59.589-0.23393c-0.136-0.48325 0.32548 6e-3 0 0zm0.18905-0.12944c1.1435-0.24644 1.4027-7.4344 1.8124-3.5537-0.05006 1.7387-0.61689 3.2195-1.8124 3.5537zm1.2119-2.3232c-0.08894-0.34606-0.18133 0.33718 0 0zm0.53661-1.9525c-0.21066 0.0961 0.09517 0.82005 0 0zm18.176 4.149c0.54183-2.2101 1.3534 0.43649 0 0zm1.1397-1.0607c0.18134-0.33717 0.0889 0.34605 0 0zm14.497-0.72565c-0.5616-2.3815 1.0288-0.31674 0 0zm36.31-0.41016c0.0889-0.34606 0.18133 0.33719 0 0zm-49.016-0.29204c-2.5403-2.4245-2.4994-7.7276-0.58384-11.184-0.20047-4.3873 1.3245 6.3135 0.0814 4.1207 0.31812 1.6968 1.8756 5.3621 0.50247 7.0636zm-78.001-0.46516c0.18783-0.33956 0.18786 0.33955 0 0zm91.682-0.54008c-1.6927-2.9267-1.8392-7.2435-4.6297-9.0669-3.102-6.0306 6.884 7.9291 4.6297 9.0669zm35.898-0.0278c0.0643-0.42663 0.0643 0.42662 0 0zm-126.69-0.14201c0.15292-0.82097 0.20747-0.0411 0 0zm126.9-4e-3c0.38849-1.8047 0.33888 0.42608 0 0zm0.42237-0.6632c1.2364-2.9033 0.68435 0.0103 0 0zm18.715-0.39395c0.39063-0.07764 0.25416 0.56295 0 0zm-63.842-0.26342c0.37016-1.0697 0.34123 0.22499 0 0zm64.042-0.14197c0.27616-0.66884 0.27616 0.66884 0 0zm-146.93-0.6391c0.14418-0.95301 0.18993 0.94915 0 0zm147.31 0.05207c-0.36988-0.9497 0.61151 0.28275 0 0zm-147.06-0.15778c-0.02183-0.98715 0.44334 0.39073 0 0zm49.257-0.64948c-0.5243-1.0344 0.53218 0.25455 0 0zm98.183-0.17376c0.98504-3.2234 1.7884-1.2576 0 0zm-81.455-0.44979c-4.0476-6.6617-0.89351-9.2228 0.10966-0.75552l0.14132 0.8011-0.25101-0.04558zm63.931-0.72798c0.28267-0.33934 0.18844 0.35059 0 0zm17.907-0.27741c-0.0826-0.3654 0.28507 0.05949 0 0zm-94.489-0.0718c-0.88947-0.34965 2.9131-9.2833 1.3451-3.0936-0.59731 1.0238 0.15464 3.2366-1.3451 3.0936zm-0.93278-1.4473c-0.91551-3.8446-2.4842-6.7048-2.5664-1.3668-3.1126 0.0075-3.7374-6.1194-6.7413-3.3884-1.7189-2.9894-0.60911-6.8721 0.21661-1.0154 3.568 0.28096 3.1845-8.0266 3.742 0.59332 2.484 7.7638 5.4792-6.161 4.0552-4.191 0.12117 2.5433 1.5409 8.4876 1.2939 9.3683zm27.447 0.23479c-2.5592-2.4843-0.83416-2.5113 0 0zm51.244-0.61522c0.40185-0.34652 0.27357 0.35543 0 0zm-21.948-0.37625c-2.5416-3.469-14.121-4.2755-11.581-6.4149 2.4453 7.8321 0.53818 1.1973-3.8698 0.87343-3.778-2.1826-6.7107-3.6274-10.954-3.9259 1.3211-2.2501 8.0952-0.66222 4.2368-7.732-3.6104-1.817-6.3328-4.895-6.473-5.2933-2.6754 2.4101-2.9675 3.3862-6.8455 4.1541-2.8438-1.1059-3.3856-5.78-1.0974-8.166 2.9402-2.4583 9.5113 2.8183 3.4002-3.5165-2.0879-0.18866-3.8684 2.7133-5.8217 3.9394-2.4717 2.7681-1.7168 7.3627 0.90406 9.0822 5.1845 0.51913 6.5256 0.9777 0.63999 1.5592-2.4779 0.49493-4.183-7.4611-3.8234-4.78-0.99099-2.6557-0.47017-9.9959 0.66131-8.1441-2.2016 0.6424-6.4998-2.3784-5.0558-2.3237 1.9987 2.0401 8.0459 4.1048 6.8208 2.3851 0.44467-0.6118 6.9132-2.7817 5.1322-2.4578 6.8343 3.176 3.3304-5.4638-0.37501-2.748-3.7402-1.2264-5.3802 0.46882-8.3419 1.6315-1.5373 0.42085-7.7198 1.9853-5.881 0.26149 4.3382-1.9085-4.826-3.3656 2.3083-4.1087 5.0749-1.1811 8.717-0.33689 12.729 0.23877 4.3132 0.72589 5.9897 6.259 8.8996 9.7161 2.3489 7.8598 4.3618 4.5859 1.1088-0.8285-0.14734-1.2797 5.7737 7.4807 4.9712 6.6638 4.183 2.9737-0.66269-7.9812-1.6074-6.1445 0.93617 1.1848 5.2702 8.2454 3.1791 2.707-1.8431-7.4709 1.9379 1.7121 1.652 2.3568 2.11 4.9853 5.699 8.2282 9.6333 10.446 0.90242 3.2552 7.7913 7.6926 5.4511 10.569zm-3.6778-5.7729c-1.3884-5.2369-6.3094-5.9048-9.7022-8.0044-1.9842 0.45091-4.9788 3.087-7.2635-1.369 0.0451 8.7012 10.967 3.4433 14.982 8.8488l0.66174 0.38364zm-9.6391-0.65928c0.74255-2.8933-4.64 1.3326 0 0zm-2.3139-1.5655c-0.38565-2.265-5.2554 0.25166 0 0zm-3.1552-6.4862c1.1554-2.5851-2.8737-0.8564 0 0zm5.916-0.60617c-1.8814-3.8918-11.626-6.2943-8.9306-4.7851-2.4448-5.022 3.7212 1.3205 0.83168 2.0785 1.1186-0.79749 15.878 5.2817 7.9915 2.7922l0.0576 0.14198 0.0499-0.22756zm-22.368-4.4474c0.0472-2.6428-2.376-0.40309 0 0zm19.76-1.6137c-0.17159-0.3251-0.21178 0.18037 0 0zm-10.721-0.6918c-1.799-7.3639-6.1017-0.18126 0 0zm-10.567-0.52057c1.4386-4.9705-2.4072-0.03314 0 0zm3.7376 0.11728c2.0148-2.93-3.5109 0.33276 0 0zm4.482-3.5609c1.7626-3.2557-4.646-0.52215 0 0zm-10.864-0.88662c0.87654-1.7346-1.5862-0.4416 0 0zm0.38522-0.71974c-0.29115-0.19889-0.0687 0.21329 0 0zm-3.8248-5.3201c5.3605-1.6237-4.1267-2.2823 0 0zm-3.7648 32.259c-0.0701-0.68376 0.43662 0.55042 0 0zm-22.83-0.11873c-3.8786-2.257 6.4381 0.10903 0 0zm20.627-0.60181c1.2384-6.5022-5.3024-1.0749-3.2236-3.2241 1.5531-1.2892 3.2414-3.8248 3.6722-4.9955-1.6657 2.5081 1.8106 8.4689-0.44862 8.2196zm72.14-0.58149c-0.0736-0.52803 1.0779-0.52666 0 0zm-70.443-0.44489c-2.0488-4.7091 1.1506-7.9934 0.2613 0.21322l-0.26127-0.21322zm71.129-0.8811c0.3538-0.57461 0.4232-0.052 0 0zm-55.187-0.61943c-0.67942-1.5209 1.0092 1.1165 0 0zm5.6469 0.24448c-1.1893-3.7994 8.9678-3.4563 4.4337-2.8306-1.8124 1.0519-2.6101 1.8747-4.4337 2.8306zm50.275-0.49408c0.13953-0.47661 0.22838 0.34326 0 0zm17.234-0.43819c0.0501-0.83704 0.26999 0.40839 0 0zm-95.256-0.84355c-1.7799-7.029 3.7129-3.496 0 0zm11.15-0.38707c-0.76475-3.1177 3.3793 0.16872 0 0zm67.975-0.9285c0.0882-0.61428 0.27043 0.34497 0 0zm-103.1-0.78884c-0.34911-3.196 2.7348-2.2692 4.2265-4.7594 2.1985-2.8848 4.4559-3.103 1.4535 0.35368-2.3112 0.22374-3.4084 3.5818-5.6799 4.4057zm121.01-0.96528c0.0235-0.4632 0.33235 0.18006 0 0zm-72.59-0.65549c-1.6002-1.5241 1.4081-1.1625 0 0zm56.024 0.10506c-0.21817-0.62113 0.41581-0.90463 0 0zm16.746-0.39299c0.089-0.79822 0.26256 0.52818 0 0zm0.30572-0.57907c0.0643-0.42664 0.0643 0.42662 0 0zm-121.7-0.85186c0.18134-0.33717 0.08893 0.34605 0 0zm5.3674-0.09465c0.02709-0.29668 0.42095 0.22954 0 0zm117.07-0.19622c1.3975-2.1528 0.43253-0.71218 0 0zm-121.77-0.50353c0.03349-0.25414 0.43478 0.08482 0 0zm122.54-0.9932c0.42432-1.071 0.90829-0.50644 0 0zm-86.049-0.29367c-1.0551-3.621 2.7247 0.63515 0 0zm86.645-0.63205c-0.099-0.56646 0.44003 0.12738 0 0zm-90.031-1.6245c-2.7743-2.9207 3.9075-0.58711 0 0zm-44.791-0.07933c-0.25775-0.5571 0.43287-0.44834 0 0zm118.56-0.31535c0.18133-0.33717 0.0889 0.34605 0 0zm-118.41-0.28588c2.0008-1.815-0.06623 0.04304 0 0zm16.153-0.15318c0.32913-2.1284 1.5729-0.22596 0 0zm119.7-0.12885c0.0522-0.6588 0.16777 0.65911 0 0zm-89.699-0.34913c-0.42212-1.1406 1.3627-0.29474 0 0zm-29.392-0.69203c0.18786-0.33956 0.18786 0.33957 0 0zm39.072-0.32328c-0.11269 0.16879-0.0938 0.13984 0 0zm-39.127-0.02884c-0.28313-0.84944 0.37374 0.23982 0 0zm10.465-0.39285c-2.3019-0.99598-1.1129-2.9582 0 0zm-10.686-0.08021c-0.12712-0.50676 0.55192 0.04267 0 0zm120.64-0.57091c-0.0124-0.70406 0.39675 0.16639 0 0zm-133.71-0.49691c0.28264-0.33934 0.18846 0.35057 0 0zm0.33086-0.23755c0.31806-0.73354 0.44774 0.33575 0 0zm36.831-0.19378c-2.8365-3.44 5.9529 0.75994 0 0zm-5.1768-0.11334c1.473-3.4141 5.2951-0.41756 0 0zm-31.139-0.09422c0.41648-1.4548 6.2056-5.4762 4.2282-3.3358-1.4536 1.0746-2.8823 2.3264-4.2282 3.3358zm13.529-2.7156c0.13064-0.6424 0.22731 0.51166 0 0zm0.32413-0.22818c1.9259-1.3365 3.1415-1.9697 1.6499-4.1787 3.8447-2.5523-4.0647-4.2906 3.8213-0.06852-0.55716 1.5726-7.4062 4.7968-5.4711 4.2472zm3.6318-3.1735c-0.76283-0.837-0.37169 0.82486 0 0zm-10.869 2.5206c-3.4218-1.3579 8.6653-7.0182 4.7052-4.9941 2.514-0.91561 3.1439-5.1582 4.9356-6.7309-0.6405 3.2537-3.0277 7.0654-6.0553 8.2648-1.3428 0.61546-2.5412 3.5269-3.5855 3.4602zm24.892-0.84876c-1.623-3.3415 1.18 1.1045 0 0zm104.05 0.10748c-0.15411-0.58666 0.34372 0.11604 0 0zm0.18244-0.33892c0.15514-1.962 0.37706 1.0225 0 0zm-17.947-0.02898c0.30756-0.33505 0.26383 0.46825 0 0zm0.36764-0.90215c-0.0536-0.31285 0.46993 0.22262 0 0zm-87.24-0.43713c-1.8726-4.1052 2.8354-2.867 1.2196-4.7548 3.1271-2.0202 2.5293 1.5406-0.22855 2.1941-1.5398-0.105-0.49637 3.0667-0.99101 2.5608zm105.47 0.24487c0.77405-1.9005 1.0813-1.0612 0 0zm-115.95-0.70059c1.1247-1.404 1.9986-0.17537 0 0zm116.78-0.81081c0.0592-0.59236 0.0592 0.59236 0 0zm-115.39-0.062481c0.91072-4.1705 4.7524-2.2553 0.86164-0.31612l-0.20636 0.13044zm97.433-0.40064c0.45504-0.62277 0.18809 0.41402 0 0zm-52.704-0.31301c-0.82535-1.967-1.4705-6.9007-1.5118-7.0325 0.85429 1.8867 1.6806 5.265 1.5118 7.0325zm52.936-0.35967c0.0643-0.42663 0.0643 0.42663 0 0zm-93.776-0.16043c-0.64087-0.68286 2.9945 0.07769 0 0zm1.636-0.31283c0.28266-0.33934 0.18846 0.35058 0 0zm110.76-0.29182c0.56812-1.8683 1.6171-2.0253 0 0zm-125.47-0.37073c0.18785-0.33956 0.18786 0.33955 0 0zm107.32-0.46253c0.35506-0.96015 0.22307 0.43328 0 0zm-89.71-0.07977c0.56589-0.5599 0.51628 0.15749 0 0zm14.206 0.0059c-0.82323-1.9923 0.50153-0.62137 0 0zm-26.077-0.41023c0.28698-0.34577 0.28698 0.34577 0 0zm0.3269-0.1029c0.57714-0.86702 0.64676 0.09315 0 0zm0.67047-0.54974c0.02641-0.43605 0.78321 0.22392 0 0zm18.818-0.19922c0.28264-0.33933 0.18846 0.35057 0 0zm-18.124-0.3786c2.3592-1.863-0.38249 1.1995 0 0zm5.1469 0.19737c0.1572-1.6042 1.6626-0.79095 0 0zm35.256-0.10272c-4.0306-1.7477-2.2827-7.0907 0.152 0.1893zm60.269 0.01325c0.19799-2.2348 0.74403 0.57774 0 0zm18.882-0.48649c0.18785-0.33955 0.18785 0.33954 0 0zm-118.45-0.1893c0.18785-0.33955 0.18785 0.33954 0 0zm99.702-0.28395c0.18133-0.33717 0.0889 0.34605 0 0zm0.37344-0.02366c-0.72758-0.58041 2.2484-3.9512 0 0zm-94.911-0.61758c-0.30005-1.0636 0.5927 0.59708 0 0zm30.355-0.64606c-0.46809-2.0984-6.1504-6.7693-1.8441-3.4452 2.2914-1.8589 0.8977 0.0066 2.3528 3.2353 0.33331 0.30912-0.4429 0.73269-0.50879 0.20994zm65.304-0.86412c0.87454-2.5879 0.21486-0.78106 0 0zm-105.75-0.96873c0.10187-0.63776 0.3746 0.1793 0 0zm0.37496-0.29201c0.21249-2.365 2.9439-2.5207 0.05518 0.03051zm47.634-0.38011c-1.7975-2.7509-6.1778-6.8353-0.86005-1.7921 0.11993 0.4241 1.6682 1.2586 0.86005 1.7921zm58.531-0.46701c0.44248-0.32416 0.11855 0.39912 0 0zm0.20587-0.20823c0.45775-1.4758 0.65123-0.1958 0 0zm-71.356-0.14161c-2.6318-2.6126 0.42437-0.38727-0.19195-2.1451-1.533 0.08815 1.5183 2.527 0.19195 2.1451zm-33.258-1.2482c1.1619-0.91296 0.58662-0.47339 0 0zm0.99092-0.68183c0.03591-1.2013 3.418-1.0299 4.7441-1.4795-1.4387 1.0578-3.1727 0.96246-4.7441 1.4795zm32.727-0.14712c0.27561-0.13808 0.27898 0.44667 0 0zm7.0407-2.1415c-2.1466-1.5327 2.9164 0.45228 0 0zm-33.994-0.05054c0.69811-0.76241 0.63037-0.0051 0 0zm0.70125-0.48974c0.08976-0.70543 0.79608-0.02199 0 0zm32.341-0.3819c-2.4845-0.66018-5.4755-1.7833-7.0003-2.5846-2.5873-0.19776-4.8834-0.96273-0.63713-0.5391 2.3695 1.0244 6.0964 1.7118 7.6374 3.1237zm-5.8373-2.2707c-0.0889-0.34606-0.18134 0.33717 0 0zm-25.734 2.0823c0.18786-0.33955 0.18786 0.33957 0 0zm1.1029-0.80453c0.19932-0.43964 0.19932 0.43964 0 0zm0.63523-0.20764c-0.11697-0.50948 0.47456 0.0311 0 0zm0.28385-0.59688c0.26382-0.36035 0.09131 0.37314 0 0zm0.33087-0.07894c3.7477-1.7948 3.3214 0.48759 0 0zm7.0585-0.72001c0.13952-0.4766 0.22837 0.34326 0 0zm-1.2093-0.04486c0.0235-0.46319 0.33235 0.18006 0 0zm0.36375-8e-3c0.18786-0.33954 0.18785 0.33955 0 0zm1.1132-0.06569c-0.11697-0.50948 0.47456 0.0311 0 0zm0.85368-0.18632c-0.38265-0.88484 0.39868-0.13337 0 0zm0.45953-0.03197c0.0747-0.40352 0.36462 0.39786 0 0zm8.4065 0.0022c-2.3611-1.3651 2.7798 0.3303 0 0zm-9.3991-0.09407c0.29469-0.16801 0.28705 0.30862 0 0zm7.5732 0.0066c-5.1644-0.45229-5.0279-1.3913 0.83127-0.25993-0.17165 0.41836-0.46152 0.39395-0.83127 0.25993zm-6.3968-0.24635c1.1563-1.0684 1.2164 0.09752 0 0zm-0.40441-0.04733c0.18847-0.35057 0.28266 0.33935 0 0zm1.4302-0.13635c0.32256-0.48033 0.22411 0.3986 0 0z" stroke-width=".083422"/>
</svg>
